<svg width="22" height="22" viewBox="0 0 20 20" fill="none" xmlns="http://www.w3.org/2000/svg">
<path d="M8.33329 15C9.81244 14.9997 11.249 14.5045 12.4141 13.5933L16.0775 17.2567L17.2558 16.0783L13.5925 12.415C14.5041 11.2497 14.9996 9.81287 15 8.33334C15 4.65751 12.0091 1.66667 8.33329 1.66667C4.65746 1.66667 1.66663 4.65751 1.66663 8.33334C1.66663 12.0092 4.65746 15 8.33329 15ZM8.33329 3.33334C11.0908 3.33334 13.3333 5.57584 13.3333 8.33334C13.3333 11.0908 11.0908 13.3333 8.33329 13.3333C5.57579 13.3333 3.33329 11.0908 3.33329 8.33334C3.33329 5.57584 5.57579 3.33334 8.33329 3.33334Z" fill="#6C6BE5"/>
</svg>